<svg width="20" height="20" viewBox="0 0 20 20" fill="none" xmlns="http://www.w3.org/2000/svg">
<g clip-path="url(#clip0_13072_15037)">
<path d="M10 20C15.5228 20 20 15.5228 20 10C20 4.47715 15.5228 0 10 0C4.47715 0 0 4.47715 0 10C0 15.5228 4.47715 20 10 20Z" fill="#0C0C0F"/>
<path d="M2 10.0207C2 6.19881 6.51871 4.28817 9.02911 5.24341C6.74035 5.68815 5.01262 7.71156 5.01247 10.0207C5.01257 12.3299 6.74036 14.3532 9.02911 14.798C6.51871 15.7537 2 13.8427 2 10.0207Z" fill="white"/>
<path d="M11.0374 5.24341C13.5478 4.28817 18.0665 6.19901 18.0665 10.0207C18.0665 13.8424 13.5478 15.7537 11.0374 14.798C13.3262 14.3532 15.0539 12.3299 15.0541 10.0207C15.0539 7.71163 13.3261 5.68817 11.0374 5.24341Z" fill="white"/>
<path d="M10.0724 7.00832C11.7361 7.00832 13.0456 8.43774 13.0457 10.0207C13.0457 11.6038 11.697 13.0333 10.0333 13.0333C8.36952 13.0333 7.02079 11.6038 7.02079 10.0207C7.0209 8.43774 8.40871 7.00832 10.0724 7.00832Z" fill="white"/>
</g>
<defs>
<clipPath id="clip0_13072_15037">
<rect width="20" height="20" fill="white"/>
</clipPath>
</defs>
</svg>
