<svg width="24" height="24" viewBox="0 0 24 24" fill="none" xmlns="http://www.w3.org/2000/svg">
<path d="M12 22C17.5228 22 22 17.5228 22 12C22 6.47715 17.5228 2 12 2C6.47715 2 2 6.47715 2 12C2 17.5228 6.47715 22 12 22Z" fill="url(#paint0_linear_13477_71542)"/>
<path d="M16.4658 6.79919H18.2829L14.5011 10.5446C13.8399 11.1961 12.9489 11.5613 12.0207 11.5613C11.0925 11.5613 10.2016 11.1961 9.54036 10.5446L5.75541 6.79919H7.57557L10.4489 9.64303C10.8673 10.056 11.4315 10.2876 12.0195 10.2876C12.6073 10.2876 13.1716 10.056 13.59 9.64303L16.4658 6.79919ZM7.55359 17.2132H5.7334L9.54036 13.4451C10.2016 12.7936 11.0925 12.4284 12.0207 12.4284C12.9489 12.4284 13.8399 12.7936 14.5011 13.4451L18.3081 17.2125H16.4878L13.5925 14.3442C13.1741 13.9312 12.6099 13.6996 12.022 13.6996C11.4341 13.6996 10.8698 13.9312 10.4514 14.3442L7.55294 17.2132H7.55359Z" fill="white"/>
<defs>
<linearGradient id="paint0_linear_13477_71542" x1="6.4" y1="20.2667" x2="18.5333" y2="4.53333" gradientUnits="userSpaceOnUse">
<stop stop-color="#F25125"/>
<stop offset="1" stop-color="#FC980C"/>
</linearGradient>
</defs>
</svg>
